<?xml version="1.0" encoding="utf-8"?>
<!-- Generator: Adobe Illustrator 16.0.0, SVG Export Plug-In . SVG Version: 6.00 Build 0)  -->
<!DOCTYPE svg PUBLIC "-//W3C//DTD SVG 1.1//EN" "http://www.w3.org/Graphics/SVG/1.1/DTD/svg11.dtd">
<svg version="1.1" id="Layer_1" xmlns="http://www.w3.org/2000/svg" xmlns:xlink="http://www.w3.org/1999/xlink" x="0px" y="0px"
	 width="512px" height="512px" viewBox="0 0 512 512" enable-background="new 0 0 512 512" xml:space="preserve">
<g id="Circle_Grid">
	<g>
		<circle fill="#15CAF6" cx="256" cy="256" r="256"/>
	</g>
</g>
<g id="Glyph">
	<path fill="#FFFFFF" d="M256,40.528c-72.64,0-131.526,58.886-131.526,131.526c0,72.639,58.886,131.525,131.526,131.525
		s131.525-58.886,131.525-131.525C387.443,99.448,328.605,40.61,256,40.528z"/>
	<path fill="#15CAF6" d="M312.368,134.474h-65.762c-5.189,0-9.396,4.207-9.396,9.396c0,5.188,4.207,9.394,9.396,9.394h18.789
		c25.943-0.026,46.994,20.983,47.021,46.925c0.021,22.358-15.717,41.633-37.627,46.082v19.729H237.21V247.21h-37.578v-37.579h65.763
		c5.188,0,9.395-4.205,9.395-9.394c0-5.189-4.206-9.396-9.395-9.396h-18.789c-25.944,0.027-46.995-20.983-47.021-46.926
		c-0.022-22.357,15.716-41.631,37.625-46.081V78.106h37.579v18.791h37.579V134.474z"/>
	<path fill="#FFFFFF" d="M348.983,410.373c-2.557-7.674-9.738-12.848-17.826-12.848h-18.789v-56.368
		c0-10.377-8.412-18.788-18.79-18.788h-75.156c-10.378,0-18.79,8.411-18.79,18.788v56.368h-18.79
		c-10.376,0-18.788,8.413-18.788,18.79c0,5.913,2.784,11.481,7.516,15.031l75.157,56.368c6.68,5.01,15.867,5.01,22.547,0
		l75.156-56.368C348.901,426.495,351.541,418.045,348.983,410.373L348.983,410.373z"/>
</g>
</svg>
