<?xml version="1.0" encoding="utf-8"?>
<!-- Generator: Adobe Illustrator 16.0.0, SVG Export Plug-In . SVG Version: 6.00 Build 0)  -->
<!DOCTYPE svg PUBLIC "-//W3C//DTD SVG 1.1//EN" "http://www.w3.org/Graphics/SVG/1.1/DTD/svg11.dtd">
<svg version="1.1" id="Layer_1" xmlns="http://www.w3.org/2000/svg" xmlns:xlink="http://www.w3.org/1999/xlink" x="0px" y="0px"
	 width="512px" height="512px" viewBox="0 0 512 512" enable-background="new 0 0 512 512" xml:space="preserve">
<g id="Circle_Grid_3_">
	<g>
		<circle fill="#15CAF6" cx="256.001" cy="256" r="256"/>
	</g>
</g>
<g>
	<polygon fill="#FFFFFF" points="119.102,160.279 113.43,185.398 116.672,212.949 108.568,227.534 89.932,258.326 72.105,272.102 
		55.898,279.394 51.037,316.668 58.33,332.874 94.793,345.839 110.189,366.097 131.258,386.354 150.705,397.699 157.998,422.818 
		162.859,449.559 172.582,455.23 202.564,456.041 209.857,446.317 214.719,422.818 233.355,423.629 269.82,422.818 288.457,422.818 
		292.508,439.024 298.99,453.61 315.197,457.661 335.455,451.989 347.609,404.991 374.35,386.354 401.9,349.08 415.674,293.169 
		401.869,250.963 385.693,217 372.75,196 334.5,170 333.25,186.5 277,205.5 234.75,202 211,178.25 170.25,167.25 	"/>
	<g>
		<g>
			<g>
				<path fill="#15CAF6" d="M119.318,268.619c3.377,0,6.117,2.739,6.117,6.116c0,4.283,3.482,7.767,7.766,7.767
					c4.281,0,7.766-3.483,7.766-7.767c0-3.379,2.738-6.116,6.117-6.116c3.377,0,6.115,2.739,6.115,6.116
					c0,11.028-8.971,20-19.998,20s-20-8.972-20-20C113.201,271.355,115.939,268.619,119.318,268.619z"/>
			</g>
		</g>
		<g>
			<g>
				<path fill="#FFFFFF" d="M61.904,269.618l17.215-5.515c2.205-0.706,3.943-2.468,4.646-4.709
					c3.629-11.536,9.105-22.366,16.275-32.191c3.27-4.478,6.902-8.754,10.873-12.825c-2.541-11.142-3.92-23.752-3.742-34.646
					c0.256-15.584,3.371-24.725,9.52-27.946c3.313-1.736,13.395-7.014,67.957,17.963c1.293,0.592,2.498,1.319,3.615,2.153
					c3.678-0.988,7.439-1.902,11.223-2.723c0.455-0.1,0.924-0.188,1.383-0.284c-4.422-9.659-7.004-20.149-7.488-30.979
					c-0.15-3.376,2.463-6.234,5.838-6.385c3.367-0.167,6.234,2.461,6.385,5.837c0.797,17.807,8.182,34.56,20.797,47.175
					c7.537,7.537,16.361,13.012,25.766,16.459c16.313-2.289,32.924-2.289,49.236,0c9.404-3.447,18.229-8.922,25.766-16.459
					c13.457-13.458,20.869-31.352,20.869-50.384c0-19.033-7.412-36.926-20.869-50.384c-13.457-13.459-31.352-20.871-50.383-20.871
					c-19.033,0-36.928,7.412-50.385,20.871c-5.408,5.408-9.877,11.58-13.283,18.341c-1.52,3.018-5.197,4.232-8.215,2.713
					c-3.018-1.519-4.23-5.197-2.713-8.214c3.992-7.929,9.227-15.159,15.561-21.491c15.768-15.77,36.734-24.453,59.033-24.453
					c22.301,0,43.266,8.684,59.035,24.453s24.453,36.734,24.453,59.034s-8.684,43.266-24.453,59.034
					c-4.549,4.549-9.498,8.46-14.73,11.737c-0.002,0-0.004,0-0.006,0c3.803,0.987,7.578,2.097,11.311,3.345
					c3.203,1.072,4.934,4.537,3.861,7.741c-1.07,3.204-4.537,4.934-7.74,3.863c-33.359-11.152-70.102-11.152-103.459,0
					c-0.645,0.215-1.299,0.316-1.941,0.316c-2.559,0-4.943-1.619-5.801-4.18c-1.07-3.204,0.658-6.669,3.861-7.741
					c3.734-1.248,7.508-2.357,11.313-3.345c-0.004,0-0.006,0-0.006,0c-5.236-3.277-10.184-7.188-14.73-11.737
					c-4.025-4.023-7.576-8.418-10.662-13.088c-1.686,0.327-3.359,0.67-5.008,1.028c-2.197,0.478-4.385,0.989-6.551,1.526
					c0.068,0.267,0.139,0.531,0.193,0.802c2.984,14.156,2.791,26.677-0.576,37.211c-3.023,9.47-8.482,17.141-16.219,22.803
					c-9.121,6.672-20.133,9.555-30.109,9.555c-7.506,0-14.426-1.634-19.51-4.513c-5.75-3.257-10.566-10.118-14.381-20.421
					c-1.762,2.058-3.432,4.164-5.006,6.322c-6.385,8.745-11.26,18.384-14.486,28.648c-1.896,6.027-6.602,10.77-12.586,12.689
					l-17.215,5.515c-4.518,1.446-7.555,5.604-7.555,10.349v28.547c0,4.742,3.037,8.9,7.555,10.348l27.734,8.884
					c4.439,1.423,8.195,4.474,10.576,8.589c10.896,18.833,28.031,34.419,50.926,46.322c2.645,1.376,4.479,3.838,5.029,6.756
					l8.885,47.04c0.244,1.296,1.379,2.236,2.699,2.236h28.885c1.32,0,2.455-0.94,2.701-2.236l4.92-25.998
					c0.967-5.114,5.766-8.512,10.93-7.729c12.441,1.881,25.262,2.834,38.104,2.834c9.555,0,18.986-0.533,28.035-1.585
					c5.002-0.575,9.664,2.835,10.6,7.776l4.676,24.701c0.244,1.296,1.381,2.236,2.699,2.236h28.885c1.32,0,2.455-0.94,2.703-2.256
					l8.555-44.43c0.551-2.861,2.348-5.295,4.936-6.677c39.027-20.836,59.658-55.645,59.658-100.664
					c0-22.746-4.977-42.859-14.791-59.782c-9.158-15.794-22.533-28.852-39.754-38.813c-2.926-1.691-3.924-5.434-2.232-8.358
					c1.691-2.924,5.432-3.922,8.357-2.231c33.393,19.317,53.533,49.119,59.08,86.972V274.1c0.588-0.054,1.176-0.104,1.764-0.165
					c-0.105-4.084,0.633-8.205,2.24-12.205c3.551-8.821,10.84-15.188,18.572-16.22c6.094-0.816,11.895,1.771,15.92,7.09
					c5.836,7.711,4.885,13.813,3.059,17.575c-3.08,6.348-11,10.838-24.141,13.662c0.361,0.541,0.758,1.084,1.193,1.63
					c7.764,9.739,16.912,11.892,22.852,12.094c3.479,0.117,6.264,2.91,6.264,6.39v0.03c0,3.431-2.709,6.23-6.137,6.388
					c-0.441,0.021-0.898,0.031-1.377,0.031c-7.516,0-19.58-2.773-31.168-17.305c-1.83-2.294-3.32-4.714-4.467-7.214
					c-1.154,0.13-2.264,0.241-3.326,0.341c0-0.003,0-0.005,0-0.008c0.207,3.315,0.324,6.679,0.324,10.101
					c0,25.472-6.072,48.182-18.047,67.503c-11.041,17.814-26.85,32.399-47.002,43.368l-8.314,43.192
					c-1.338,7.066-7.529,12.196-14.721,12.196h-28.885c-7.191,0-13.383-5.13-14.719-12.196l-4.229-22.334
					c-8.779,0.929-17.871,1.4-27.061,1.4c-12.609,0-25.203-0.878-37.479-2.611l-4.457,23.547
					c-1.338,7.067-7.527,12.194-14.719,12.194h-28.885c-7.191,0-13.383-5.129-14.721-12.197l-8.65-45.799
					c-24.436-12.923-42.855-29.897-54.756-50.465c-0.859-1.482-2.18-2.57-3.719-3.064l-27.736-8.884
					c-9.604-3.078-16.055-11.919-16.055-22.002v-28.546C45.85,281.534,52.301,272.694,61.904,269.618z M120.322,196.921
					c2.355,20.134,8.67,37.356,15.018,40.95c7.211,4.086,23.863,4.874,36.365-4.271c12.518-9.156,16.684-25.622,12.051-47.616
					c0-0.002,0-0.002,0-0.002c-0.467-2.209-2.037-4.12-4.199-5.109c-30.623-14.019-48.279-18.603-54.838-18.603
					c-0.99,0-1.727,0.104-2.217,0.296C120.531,164.665,117.947,176.603,120.322,196.921z M448.977,264.833
					c0.635-1.305-0.859-3.6-1.807-4.852c-1.502-1.984-2.885-2.391-3.93-2.391c-0.221,0-0.428,0.02-0.615,0.045
					c-2.814,0.375-6.754,3.469-8.842,8.659c-0.492,1.222-1.131,3.244-1.279,5.768C440.971,270.309,447.551,267.779,448.977,264.833z
					"/>
			</g>
		</g>
		<path fill="#FFFFFF" d="M276.672,49.426c-46.176,0-83.611,37.434-83.611,83.611c0,33.382,19.566,62.19,47.854,75.595
			c8.057-2.265,19.115-3.795,31.531-4.163c-37.498-2.195-66.996-108.863-66.996-70.824c0,45.98,31.65,73.256,71.109,73.256
			c39.457,0,71.672-19.752,71.672-73.863c0-37.748-29.381,68.76-66.473,71.377c12.32,0.218,23.434,1.574,31.803,3.671
			c27.676-13.63,46.723-42.113,46.723-75.048C360.283,86.859,322.848,49.426,276.672,49.426z"/>
		<g>
			<g>
				<path fill="#15CAF6" d="M281.113,114.805V87.643c9.367,0.669,12.848,4.951,16.059,4.951c4.016,0,5.887-5.086,5.887-7.628
					c0-6.558-12.846-9.366-21.945-9.635v-3.614c0-1.606-2.008-3.078-4.016-3.078c-2.275,0-3.881,1.472-3.881,3.078v3.88
					c-12.711,1.339-25.424,8.028-25.424,24.891c0,17.129,13.381,21.946,25.424,26.228v31.446
					c-13.65-1.07-17.262-10.438-21.678-10.438c-3.346,0-6.154,4.418-6.154,7.629c0,6.557,11.24,15.522,27.832,15.79l0,0v4.148
					c0,1.605,1.607,3.078,3.881,3.078c2.008,0,4.016-1.473,4.016-3.078v-4.55c14.451-2.006,24.355-11.106,24.355-27.565
					C305.469,124.977,292.756,119.086,281.113,114.805z M274.02,112.264c-7.092-2.678-12.846-5.486-12.846-13.113
					c0-6.959,5.352-10.305,12.846-11.241V112.264z M280.309,157.894v-28.235c6.559,2.811,11.775,6.557,11.775,14.986
					C292.084,152.273,287.535,156.556,280.309,157.894z"/>
			</g>
		</g>
	</g>
	<path fill="#FFFFFF" d="M117.482,157.037"/>
	<path fill="#15CAF6" d="M237.916,203.959c5.375-1.25,9.043-2,14.373-2.668c16.313-2.289,32.924-2.289,49.236,0l19.686,3.928
		c-0.002,0-0.004,0-0.006,0c3.803,0.988,7.578,2.098,11.311,3.346c3.203,1.072,4.934,4.537,3.861,7.74
		c-1.07,3.205-4.537,4.934-7.74,3.863c-33.359-11.152-70.102-11.152-103.459,0c-0.645,0.215-1.299,0.316-1.941,0.316
		c-2.559,0-4.943-1.619-5.801-4.18c-1.07-3.203,0.658-6.668,3.861-7.74c3.734-1.248,7.508-2.357,11.313-3.346
		c-0.004,0-0.006,0-0.006,0L237.916,203.959z"/>
</g>
</svg>
