<?xml version="1.0" encoding="utf-8"?>
<!-- Generator: Adobe Illustrator 16.0.0, SVG Export Plug-In . SVG Version: 6.00 Build 0)  -->
<!DOCTYPE svg PUBLIC "-//W3C//DTD SVG 1.1//EN" "http://www.w3.org/Graphics/SVG/1.1/DTD/svg11.dtd">
<svg version="1.1" id="Capa_1" xmlns="http://www.w3.org/2000/svg" xmlns:xlink="http://www.w3.org/1999/xlink" x="0px" y="0px"
	 width="245.293px" height="245.304px" viewBox="298.3 175.012 245.293 245.304"
	 enable-background="new 298.3 175.012 245.293 245.304" xml:space="preserve">
<path d="M536.115,182.487c-9.965-9.966-26.125-9.966-36.074,0l-79.094,79.104l-79.095-79.104c-9.966-9.966-26.108-9.966-36.074,0
	s-9.966,26.108,0,36.074l79.094,79.101l-79.098,79.105c-9.966,9.965-9.966,26.109,0,36.074c4.981,4.98,11.51,7.475,18.039,7.475
	c6.528,0,13.064-2.49,18.039-7.475l79.095-79.102l79.094,79.102c4.982,4.98,11.51,7.475,18.039,7.475s13.055-2.49,18.039-7.475
	c9.967-9.965,9.967-26.109,0-36.074l-79.098-79.101l79.094-79.102C546.082,208.599,546.082,192.453,536.115,182.487z"/>
</svg>
