<?xml version="1.0" encoding="utf-8"?>
<!-- Generator: Adobe Illustrator 16.0.0, SVG Export Plug-In . SVG Version: 6.00 Build 0)  -->
<!DOCTYPE svg PUBLIC "-//W3C//DTD SVG 1.1//EN" "http://www.w3.org/Graphics/SVG/1.1/DTD/svg11.dtd">
<svg version="1.1" id="Layer_1" xmlns="http://www.w3.org/2000/svg" xmlns:xlink="http://www.w3.org/1999/xlink" x="0px" y="0px"
	 width="512px" height="512px" viewBox="0 0 512 512" enable-background="new 0 0 512 512" xml:space="preserve">
<g id="Circle_Grid">
	<g>
		<circle fill="#15CAF6" cx="256" cy="256" r="256"/>
	</g>
</g>
<g id="icon">
	<path fill="#FFFFFF" d="M420,283.168v-54.336l-39.968-8.488c-2.668-9.334-6.409-18.327-11.148-26.8l22.292-34.28l-38.428-38.428
		l-34.28,22.292c-8.467-4.753-17.467-8.489-26.812-11.128l-8.488-40h-54.336l-8.488,39.968c-9.334,2.668-18.327,6.409-26.8,11.148
		l-34.28-22.292l-38.428,38.428l22.292,34.28c-4.739,8.472-8.48,17.466-11.148,26.8l-39.98,8.5v54.336l40,8.488
		c2.631,9.339,6.357,18.335,11.1,26.8l-22.292,34.28l38.428,38.428l34.28-22.292c8.472,4.739,17.466,8.48,26.8,11.147l8.516,39.98
		h54.336l8.488-40c9.332-2.651,18.326-6.376,26.8-11.1l34.28,22.292l38.428-38.429l-22.292-34.279
		c4.735-8.482,8.47-17.485,11.128-26.828L420,283.168z M256.024,326.724c-39.06,0.014-70.735-31.64-70.748-70.7
		c-0.013-39.06,31.64-70.735,70.7-70.748c39.059-0.013,70.735,31.64,70.749,70.7C326.73,295.033,295.081,326.704,256.024,326.724z"
		/>
</g>
</svg>
